<mxfile host="65bd71144e">
    <diagram name="Page-1" id="cjWawBuhhQN7knpOXx2O">
        <mxGraphModel dx="170" dy="586" grid="1" gridSize="10" guides="1" tooltips="1" connect="1" arrows="1" fold="1" page="1" pageScale="1" pageWidth="1169" pageHeight="827" background="#ffffff" math="0" shadow="0">
            <root>
                <mxCell id="0"/>
                <mxCell id="1" parent="0"/>
                <mxCell id="IAYT3cvLgpT3Wg_UOvCZ-33" style="edgeStyle=none;curved=1;rounded=0;orthogonalLoop=1;jettySize=auto;html=1;entryX=1;entryY=0.5;entryDx=0;entryDy=0;fontSize=12;startSize=8;endSize=8;endArrow=none;endFill=0;" parent="1" target="P9IQTpDalQtBTSlJP2IU-19" edge="1">
                    <mxGeometry relative="1" as="geometry">
                        <mxPoint x="140" y="514" as="targetPoint"/>
                        <mxPoint x="210" y="420" as="sourcePoint"/>
                    </mxGeometry>
                </mxCell>
                <mxCell id="IAYT3cvLgpT3Wg_UOvCZ-2" value="สินค้า" style="whiteSpace=wrap;html=1;align=center;fontSize=16;" parent="1" vertex="1">
                    <mxGeometry x="160" y="420" width="100" height="40" as="geometry"/>
                </mxCell>
                <mxCell id="IAYT3cvLgpT3Wg_UOvCZ-3" value="ชื่อสินค้า" style="ellipse;whiteSpace=wrap;html=1;align=center;fontSize=16;" parent="1" vertex="1">
                    <mxGeometry x="40" y="230" width="100" height="40" as="geometry"/>
                </mxCell>
                <mxCell id="IAYT3cvLgpT3Wg_UOvCZ-5" value="" style="endArrow=none;html=1;rounded=0;fontSize=12;startSize=8;endSize=8;curved=1;entryX=0.5;entryY=0;entryDx=0;entryDy=0;exitX=1;exitY=1;exitDx=0;exitDy=0;" parent="1" source="IAYT3cvLgpT3Wg_UOvCZ-3" target="IAYT3cvLgpT3Wg_UOvCZ-2" edge="1">
                    <mxGeometry relative="1" as="geometry">
                        <mxPoint x="130" y="370" as="sourcePoint"/>
                        <mxPoint x="240" y="440" as="targetPoint"/>
                    </mxGeometry>
                </mxCell>
                <mxCell id="IAYT3cvLgpT3Wg_UOvCZ-22" style="edgeStyle=none;curved=1;rounded=0;orthogonalLoop=1;jettySize=auto;html=1;exitX=0.5;exitY=1;exitDx=0;exitDy=0;fontSize=12;startSize=8;endSize=8;endArrow=none;endFill=0;" parent="1" source="IAYT3cvLgpT3Wg_UOvCZ-7" edge="1">
                    <mxGeometry relative="1" as="geometry">
                        <mxPoint x="210" y="420" as="targetPoint"/>
                    </mxGeometry>
                </mxCell>
                <mxCell id="IAYT3cvLgpT3Wg_UOvCZ-7" value="ราคาต่อหน่วย" style="ellipse;whiteSpace=wrap;html=1;align=center;fontSize=16;" parent="1" vertex="1">
                    <mxGeometry x="150" y="230" width="140" height="40" as="geometry"/>
                </mxCell>
                <mxCell id="IAYT3cvLgpT3Wg_UOvCZ-21" style="edgeStyle=none;curved=1;rounded=0;orthogonalLoop=1;jettySize=auto;html=1;exitX=1;exitY=0.5;exitDx=0;exitDy=0;fontSize=12;startSize=8;endSize=8;endArrow=none;endFill=0;entryX=0.5;entryY=0;entryDx=0;entryDy=0;" parent="1" source="IAYT3cvLgpT3Wg_UOvCZ-8" target="IAYT3cvLgpT3Wg_UOvCZ-2" edge="1">
                    <mxGeometry relative="1" as="geometry"/>
                </mxCell>
                <mxCell id="IAYT3cvLgpT3Wg_UOvCZ-8" value="รหัสสินค้า" style="ellipse;whiteSpace=wrap;html=1;align=center;fontStyle=4;fontSize=16;" parent="1" vertex="1">
                    <mxGeometry x="10" y="280" width="100" height="40" as="geometry"/>
                </mxCell>
                <mxCell id="IAYT3cvLgpT3Wg_UOvCZ-23" style="edgeStyle=none;curved=1;rounded=0;orthogonalLoop=1;jettySize=auto;html=1;fontSize=12;startSize=8;endSize=8;endArrow=none;endFill=0;" parent="1" source="IAYT3cvLgpT3Wg_UOvCZ-9" edge="1">
                    <mxGeometry relative="1" as="geometry">
                        <mxPoint x="210" y="420" as="targetPoint"/>
                    </mxGeometry>
                </mxCell>
                <mxCell id="IAYT3cvLgpT3Wg_UOvCZ-9" value="รูปสินค้า" style="ellipse;whiteSpace=wrap;html=1;align=center;fontSize=16;" parent="1" vertex="1">
                    <mxGeometry x="230" y="270" width="100" height="40" as="geometry"/>
                </mxCell>
                <mxCell id="IAYT3cvLgpT3Wg_UOvCZ-24" style="edgeStyle=none;curved=1;rounded=0;orthogonalLoop=1;jettySize=auto;html=1;exitX=0;exitY=1;exitDx=0;exitDy=0;entryX=0.5;entryY=0;entryDx=0;entryDy=0;fontSize=12;startSize=8;endSize=8;endArrow=none;endFill=0;" parent="1" source="IAYT3cvLgpT3Wg_UOvCZ-11" target="IAYT3cvLgpT3Wg_UOvCZ-2" edge="1">
                    <mxGeometry relative="1" as="geometry"/>
                </mxCell>
                <mxCell id="IAYT3cvLgpT3Wg_UOvCZ-11" value="รหัสยี่ห้อสินค้า" style="ellipse;whiteSpace=wrap;html=1;align=center;fontSize=16;" parent="1" vertex="1">
                    <mxGeometry x="300" y="310" width="100" height="40" as="geometry"/>
                </mxCell>
                <mxCell id="IAYT3cvLgpT3Wg_UOvCZ-20" style="edgeStyle=none;curved=1;rounded=0;orthogonalLoop=1;jettySize=auto;html=1;exitX=0.5;exitY=1;exitDx=0;exitDy=0;fontSize=12;startSize=8;endSize=8;endArrow=none;endFill=0;" parent="1" source="IAYT3cvLgpT3Wg_UOvCZ-12" target="IAYT3cvLgpT3Wg_UOvCZ-18" edge="1">
                    <mxGeometry relative="1" as="geometry"/>
                </mxCell>
                <mxCell id="IAYT3cvLgpT3Wg_UOvCZ-12" value="ยี่ห้อ" style="whiteSpace=wrap;html=1;align=center;fontSize=16;" parent="1" vertex="1">
                    <mxGeometry x="80" y="649" width="100" height="40" as="geometry"/>
                </mxCell>
                <mxCell id="IAYT3cvLgpT3Wg_UOvCZ-13" value="มี" style="shape=rhombus;perimeter=rhombusPerimeter;whiteSpace=wrap;html=1;align=center;fontSize=16;" parent="1" vertex="1">
                    <mxGeometry x="80" y="555" width="120" height="60" as="geometry"/>
                </mxCell>
                <mxCell id="IAYT3cvLgpT3Wg_UOvCZ-16" value="รหัสยี่ห้อสินค้า" style="ellipse;whiteSpace=wrap;html=1;align=center;fontStyle=4;fontSize=16;" parent="1" vertex="1">
                    <mxGeometry x="30" y="720" width="100" height="40" as="geometry"/>
                </mxCell>
                <mxCell id="IAYT3cvLgpT3Wg_UOvCZ-18" value="ชื่อยี่ห้อสินค้า" style="ellipse;whiteSpace=wrap;html=1;align=center;fontSize=16;" parent="1" vertex="1">
                    <mxGeometry x="140" y="715" width="100" height="40" as="geometry"/>
                </mxCell>
                <mxCell id="IAYT3cvLgpT3Wg_UOvCZ-19" value="" style="endArrow=none;html=1;rounded=0;fontSize=12;startSize=8;endSize=8;curved=1;exitX=0.5;exitY=0;exitDx=0;exitDy=0;entryX=0.5;entryY=1;entryDx=0;entryDy=0;" parent="1" source="IAYT3cvLgpT3Wg_UOvCZ-16" target="IAYT3cvLgpT3Wg_UOvCZ-12" edge="1">
                    <mxGeometry relative="1" as="geometry">
                        <mxPoint x="20" y="550" as="sourcePoint"/>
                        <mxPoint x="180" y="550" as="targetPoint"/>
                    </mxGeometry>
                </mxCell>
                <mxCell id="IAYT3cvLgpT3Wg_UOvCZ-25" value="รายละเอียดสินค้า" style="ellipse;whiteSpace=wrap;html=1;align=center;fontSize=16;" parent="1" vertex="1">
                    <mxGeometry x="310" y="355" width="130" height="40" as="geometry"/>
                </mxCell>
                <mxCell id="IAYT3cvLgpT3Wg_UOvCZ-29" value="password" style="ellipse;whiteSpace=wrap;html=1;align=center;fontSize=16;" parent="1" vertex="1">
                    <mxGeometry x="260" y="90" width="100" height="40" as="geometry"/>
                </mxCell>
                <mxCell id="IAYT3cvLgpT3Wg_UOvCZ-32" style="edgeStyle=none;curved=1;rounded=0;orthogonalLoop=1;jettySize=auto;html=1;exitX=0.5;exitY=0;exitDx=0;exitDy=0;fontSize=12;startSize=8;endSize=8;endArrow=none;endFill=0;entryX=0;entryY=1;entryDx=0;entryDy=0;" parent="1" source="IAYT3cvLgpT3Wg_UOvCZ-2" target="IAYT3cvLgpT3Wg_UOvCZ-25" edge="1">
                    <mxGeometry relative="1" as="geometry">
                        <mxPoint x="290" y="380" as="targetPoint"/>
                    </mxGeometry>
                </mxCell>
                <mxCell id="IAYT3cvLgpT3Wg_UOvCZ-143" style="edgeStyle=none;curved=1;rounded=0;orthogonalLoop=1;jettySize=auto;html=1;exitX=0.5;exitY=0;exitDx=0;exitDy=0;fontSize=12;startSize=8;endSize=8;endArrow=none;endFill=0;" parent="1" source="IAYT3cvLgpT3Wg_UOvCZ-36" target="IAYT3cvLgpT3Wg_UOvCZ-45" edge="1">
                    <mxGeometry relative="1" as="geometry"/>
                </mxCell>
                <mxCell id="IAYT3cvLgpT3Wg_UOvCZ-145" style="edgeStyle=none;curved=1;rounded=0;orthogonalLoop=1;jettySize=auto;html=1;entryX=0;entryY=1;entryDx=0;entryDy=0;fontSize=12;startSize=8;endSize=8;endArrow=none;endFill=0;" parent="1" target="IAYT3cvLgpT3Wg_UOvCZ-43" edge="1">
                    <mxGeometry relative="1" as="geometry">
                        <mxPoint x="445" y="190" as="sourcePoint"/>
                    </mxGeometry>
                </mxCell>
                <mxCell id="IAYT3cvLgpT3Wg_UOvCZ-147" style="edgeStyle=none;curved=1;rounded=0;orthogonalLoop=1;jettySize=auto;html=1;exitX=0.5;exitY=0;exitDx=0;exitDy=0;entryX=0;entryY=1;entryDx=0;entryDy=0;fontSize=12;startSize=8;endSize=8;endArrow=none;endFill=0;" parent="1" source="IAYT3cvLgpT3Wg_UOvCZ-36" target="IAYT3cvLgpT3Wg_UOvCZ-40" edge="1">
                    <mxGeometry relative="1" as="geometry"/>
                </mxCell>
                <mxCell id="IAYT3cvLgpT3Wg_UOvCZ-148" style="edgeStyle=none;curved=1;rounded=0;orthogonalLoop=1;jettySize=auto;html=1;exitX=0.5;exitY=0;exitDx=0;exitDy=0;entryX=0.5;entryY=1;entryDx=0;entryDy=0;fontSize=12;startSize=8;endSize=8;endArrow=none;endFill=0;" parent="1" source="IAYT3cvLgpT3Wg_UOvCZ-36" target="IAYT3cvLgpT3Wg_UOvCZ-38" edge="1">
                    <mxGeometry relative="1" as="geometry"/>
                </mxCell>
                <mxCell id="IAYT3cvLgpT3Wg_UOvCZ-150" style="edgeStyle=none;curved=1;rounded=0;orthogonalLoop=1;jettySize=auto;html=1;exitX=0.5;exitY=0;exitDx=0;exitDy=0;entryX=1;entryY=1;entryDx=0;entryDy=0;fontSize=12;startSize=8;endSize=8;endArrow=none;endFill=0;" parent="1" source="IAYT3cvLgpT3Wg_UOvCZ-36" target="IAYT3cvLgpT3Wg_UOvCZ-37" edge="1">
                    <mxGeometry relative="1" as="geometry"/>
                </mxCell>
                <mxCell id="IAYT3cvLgpT3Wg_UOvCZ-153" style="edgeStyle=none;curved=1;rounded=0;orthogonalLoop=1;jettySize=auto;html=1;exitX=0.5;exitY=0;exitDx=0;exitDy=0;entryX=0;entryY=1;entryDx=0;entryDy=0;fontSize=12;startSize=8;endSize=8;endArrow=none;endFill=0;" parent="1" source="IAYT3cvLgpT3Wg_UOvCZ-36" target="IAYT3cvLgpT3Wg_UOvCZ-151" edge="1">
                    <mxGeometry relative="1" as="geometry"/>
                </mxCell>
                <mxCell id="IAYT3cvLgpT3Wg_UOvCZ-36" value="ลูกค้า" style="whiteSpace=wrap;html=1;align=center;fontSize=16;" parent="1" vertex="1">
                    <mxGeometry x="385" y="190" width="120" height="40" as="geometry"/>
                </mxCell>
                <mxCell id="IAYT3cvLgpT3Wg_UOvCZ-37" value="username" style="ellipse;whiteSpace=wrap;html=1;align=center;fontSize=16;" parent="1" vertex="1">
                    <mxGeometry x="300" y="50" width="100" height="40" as="geometry"/>
                </mxCell>
                <mxCell id="IAYT3cvLgpT3Wg_UOvCZ-38" value="ชื่อจริง" style="ellipse;whiteSpace=wrap;html=1;align=center;fontSize=16;" parent="1" vertex="1">
                    <mxGeometry x="405" y="40" width="100" height="40" as="geometry"/>
                </mxCell>
                <mxCell id="IAYT3cvLgpT3Wg_UOvCZ-40" value="นามสกุล" style="ellipse;whiteSpace=wrap;html=1;align=center;fontSize=16;" parent="1" vertex="1">
                    <mxGeometry x="500" y="60" width="100" height="40" as="geometry"/>
                </mxCell>
                <mxCell id="IAYT3cvLgpT3Wg_UOvCZ-43" value="อีเมล" style="ellipse;whiteSpace=wrap;html=1;align=center;fontSize=16;" parent="1" vertex="1">
                    <mxGeometry x="600" y="110" width="100" height="40" as="geometry"/>
                </mxCell>
                <mxCell id="IAYT3cvLgpT3Wg_UOvCZ-44" value="ที่อยู่" style="ellipse;whiteSpace=wrap;html=1;align=center;fontSize=16;" parent="1" vertex="1">
                    <mxGeometry x="590" y="155" width="100" height="40" as="geometry"/>
                </mxCell>
                <mxCell id="IAYT3cvLgpT3Wg_UOvCZ-45" value="เบอร์โทรศัพท์" style="ellipse;whiteSpace=wrap;html=1;align=center;fontSize=16;" parent="1" vertex="1">
                    <mxGeometry x="230" y="135" width="100" height="40" as="geometry"/>
                </mxCell>
                <mxCell id="IAYT3cvLgpT3Wg_UOvCZ-120" style="edgeStyle=none;curved=1;rounded=0;orthogonalLoop=1;jettySize=auto;html=1;exitX=0.5;exitY=1;exitDx=0;exitDy=0;entryX=0;entryY=0.5;entryDx=0;entryDy=0;fontSize=12;startSize=8;endSize=8;endArrow=none;endFill=0;" parent="1" source="IAYT3cvLgpT3Wg_UOvCZ-49" target="IAYT3cvLgpT3Wg_UOvCZ-82" edge="1">
                    <mxGeometry relative="1" as="geometry"/>
                </mxCell>
                <mxCell id="IAYT3cvLgpT3Wg_UOvCZ-121" style="edgeStyle=none;curved=1;rounded=0;orthogonalLoop=1;jettySize=auto;html=1;exitX=0.5;exitY=1;exitDx=0;exitDy=0;entryX=0;entryY=0.5;entryDx=0;entryDy=0;fontSize=12;startSize=8;endSize=8;endArrow=none;endFill=0;" parent="1" source="IAYT3cvLgpT3Wg_UOvCZ-49" target="IAYT3cvLgpT3Wg_UOvCZ-81" edge="1">
                    <mxGeometry relative="1" as="geometry"/>
                </mxCell>
                <mxCell id="IAYT3cvLgpT3Wg_UOvCZ-122" style="edgeStyle=none;curved=1;rounded=0;orthogonalLoop=1;jettySize=auto;html=1;exitX=0.5;exitY=1;exitDx=0;exitDy=0;fontSize=12;startSize=8;endSize=8;endArrow=none;endFill=0;" parent="1" source="IAYT3cvLgpT3Wg_UOvCZ-49" target="IAYT3cvLgpT3Wg_UOvCZ-86" edge="1">
                    <mxGeometry relative="1" as="geometry"/>
                </mxCell>
                <mxCell id="35" style="edgeStyle=none;html=1;exitX=0.5;exitY=1;exitDx=0;exitDy=0;entryX=0;entryY=0.5;entryDx=0;entryDy=0;endArrow=none;endFill=0;" parent="1" source="IAYT3cvLgpT3Wg_UOvCZ-49" target="34" edge="1">
                    <mxGeometry relative="1" as="geometry"/>
                </mxCell>
                <mxCell id="37" style="edgeStyle=none;html=1;exitX=0.5;exitY=1;exitDx=0;exitDy=0;entryX=1;entryY=0;entryDx=0;entryDy=0;endArrow=none;endFill=0;" parent="1" source="IAYT3cvLgpT3Wg_UOvCZ-49" target="36" edge="1">
                    <mxGeometry relative="1" as="geometry"/>
                </mxCell>
                <mxCell id="IAYT3cvLgpT3Wg_UOvCZ-49" value="การชำระ" style="whiteSpace=wrap;html=1;align=center;fontSize=16;" parent="1" vertex="1">
                    <mxGeometry x="815" y="570" width="100" height="40" as="geometry"/>
                </mxCell>
                <mxCell id="IAYT3cvLgpT3Wg_UOvCZ-52" style="edgeStyle=none;curved=1;rounded=0;orthogonalLoop=1;jettySize=auto;html=1;exitX=1;exitY=1;exitDx=0;exitDy=0;fontSize=12;startSize=8;endSize=8;" parent="1" edge="1">
                    <mxGeometry relative="1" as="geometry">
                        <mxPoint x="610" y="310" as="sourcePoint"/>
                        <mxPoint x="610" y="310" as="targetPoint"/>
                    </mxGeometry>
                </mxCell>
                <mxCell id="IAYT3cvLgpT3Wg_UOvCZ-55" style="edgeStyle=none;curved=1;rounded=0;orthogonalLoop=1;jettySize=auto;html=1;exitX=0.5;exitY=1;exitDx=0;exitDy=0;fontSize=12;startSize=8;endSize=8;" parent="1" edge="1">
                    <mxGeometry relative="1" as="geometry">
                        <mxPoint x="480" y="350" as="sourcePoint"/>
                        <mxPoint x="480" y="350" as="targetPoint"/>
                    </mxGeometry>
                </mxCell>
                <mxCell id="IAYT3cvLgpT3Wg_UOvCZ-59" value="จำนวน" style="ellipse;whiteSpace=wrap;html=1;align=center;fontSize=16;" parent="1" vertex="1">
                    <mxGeometry x="565" y="576.5" width="125" height="50" as="geometry"/>
                </mxCell>
                <mxCell id="IAYT3cvLgpT3Wg_UOvCZ-60" value="รหัสการขาย" style="ellipse;whiteSpace=wrap;html=1;align=center;fontStyle=4;fontSize=16;" parent="1" vertex="1">
                    <mxGeometry x="1010" y="290" width="100" height="40" as="geometry"/>
                </mxCell>
                <mxCell id="IAYT3cvLgpT3Wg_UOvCZ-95" style="edgeStyle=none;curved=1;rounded=0;orthogonalLoop=1;jettySize=auto;html=1;exitX=1;exitY=0.25;exitDx=0;exitDy=0;entryX=0;entryY=0.5;entryDx=0;entryDy=0;fontSize=12;startSize=8;endSize=8;endArrow=none;endFill=0;" parent="1" source="IAYT3cvLgpT3Wg_UOvCZ-67" target="IAYT3cvLgpT3Wg_UOvCZ-60" edge="1">
                    <mxGeometry relative="1" as="geometry"/>
                </mxCell>
                <mxCell id="IAYT3cvLgpT3Wg_UOvCZ-98" style="edgeStyle=none;curved=1;rounded=0;orthogonalLoop=1;jettySize=auto;html=1;exitX=1;exitY=0.25;exitDx=0;exitDy=0;entryX=0;entryY=0.5;entryDx=0;entryDy=0;fontSize=12;startSize=8;endSize=8;endArrow=none;endFill=0;" parent="1" source="IAYT3cvLgpT3Wg_UOvCZ-67" target="IAYT3cvLgpT3Wg_UOvCZ-68" edge="1">
                    <mxGeometry relative="1" as="geometry"/>
                </mxCell>
                <mxCell id="IAYT3cvLgpT3Wg_UOvCZ-99" style="edgeStyle=none;curved=1;rounded=0;orthogonalLoop=1;jettySize=auto;html=1;exitX=1;exitY=0.25;exitDx=0;exitDy=0;entryX=0;entryY=0.5;entryDx=0;entryDy=0;fontSize=12;startSize=8;endSize=8;endArrow=none;endFill=0;" parent="1" source="IAYT3cvLgpT3Wg_UOvCZ-67" target="IAYT3cvLgpT3Wg_UOvCZ-70" edge="1">
                    <mxGeometry relative="1" as="geometry">
                        <mxPoint x="940" y="427.5" as="targetPoint"/>
                    </mxGeometry>
                </mxCell>
                <mxCell id="IAYT3cvLgpT3Wg_UOvCZ-67" value="การขาย" style="whiteSpace=wrap;html=1;align=center;fontSize=16;" parent="1" vertex="1">
                    <mxGeometry x="790" y="340" width="150" height="70" as="geometry"/>
                </mxCell>
                <mxCell id="IAYT3cvLgpT3Wg_UOvCZ-68" value="สถานะการขาย" style="ellipse;whiteSpace=wrap;html=1;align=center;fontSize=16;" parent="1" vertex="1">
                    <mxGeometry x="1050" y="333" width="100" height="40" as="geometry"/>
                </mxCell>
                <mxCell id="IAYT3cvLgpT3Wg_UOvCZ-69" style="edgeStyle=none;curved=1;rounded=0;orthogonalLoop=1;jettySize=auto;html=1;exitX=0.5;exitY=1;exitDx=0;exitDy=0;fontSize=12;startSize=8;endSize=8;startArrow=none;" parent="1" source="IAYT3cvLgpT3Wg_UOvCZ-65" edge="1">
                    <mxGeometry relative="1" as="geometry">
                        <mxPoint x="685" y="540" as="sourcePoint"/>
                        <mxPoint x="685" y="540" as="targetPoint"/>
                    </mxGeometry>
                </mxCell>
                <mxCell id="IAYT3cvLgpT3Wg_UOvCZ-70" value="วันเวลาที่สั่ง" style="ellipse;whiteSpace=wrap;html=1;align=center;fontSize=16;" parent="1" vertex="1">
                    <mxGeometry x="1030" y="380" width="100" height="40" as="geometry"/>
                </mxCell>
                <mxCell id="IAYT3cvLgpT3Wg_UOvCZ-101" style="edgeStyle=none;curved=1;rounded=0;orthogonalLoop=1;jettySize=auto;html=1;exitX=0.5;exitY=1;exitDx=0;exitDy=0;entryX=0.5;entryY=0;entryDx=0;entryDy=0;fontSize=12;startSize=8;endSize=8;endArrow=none;endFill=0;" parent="1" target="IAYT3cvLgpT3Wg_UOvCZ-87" edge="1">
                    <mxGeometry relative="1" as="geometry">
                        <mxPoint x="515" y="505" as="sourcePoint"/>
                    </mxGeometry>
                </mxCell>
                <mxCell id="IAYT3cvLgpT3Wg_UOvCZ-102" style="edgeStyle=none;curved=1;rounded=0;orthogonalLoop=1;jettySize=auto;html=1;exitX=0.5;exitY=1;exitDx=0;exitDy=0;fontSize=12;startSize=8;endSize=8;endArrow=none;endFill=0;entryX=1;entryY=0;entryDx=0;entryDy=0;" parent="1" target="P9IQTpDalQtBTSlJP2IU-20" edge="1">
                    <mxGeometry relative="1" as="geometry">
                        <mxPoint x="480" y="590" as="targetPoint"/>
                        <mxPoint x="515" y="505" as="sourcePoint"/>
                    </mxGeometry>
                </mxCell>
                <mxCell id="IAYT3cvLgpT3Wg_UOvCZ-103" style="edgeStyle=none;curved=1;rounded=0;orthogonalLoop=1;jettySize=auto;html=1;exitX=0.5;exitY=1;exitDx=0;exitDy=0;fontSize=12;startSize=8;endSize=8;endArrow=none;endFill=0;" parent="1" edge="1">
                    <mxGeometry relative="1" as="geometry">
                        <mxPoint x="434.9318475941434" y="533.1934398288467" as="targetPoint"/>
                        <mxPoint x="515" y="505" as="sourcePoint"/>
                    </mxGeometry>
                </mxCell>
                <mxCell id="IAYT3cvLgpT3Wg_UOvCZ-105" style="edgeStyle=none;curved=1;rounded=0;orthogonalLoop=1;jettySize=auto;html=1;exitX=0.5;exitY=1;exitDx=0;exitDy=0;entryX=0;entryY=0.5;entryDx=0;entryDy=0;fontSize=12;startSize=8;endSize=8;endArrow=none;endFill=0;" parent="1" target="IAYT3cvLgpT3Wg_UOvCZ-65" edge="1">
                    <mxGeometry relative="1" as="geometry">
                        <mxPoint x="515" y="505" as="sourcePoint"/>
                    </mxGeometry>
                </mxCell>
                <mxCell id="IAYT3cvLgpT3Wg_UOvCZ-119" style="edgeStyle=none;curved=1;rounded=0;orthogonalLoop=1;jettySize=auto;html=1;exitX=0.5;exitY=1;exitDx=0;exitDy=0;entryX=0;entryY=0;entryDx=0;entryDy=0;fontSize=12;startSize=8;endSize=8;endArrow=none;endFill=0;" parent="1" target="IAYT3cvLgpT3Wg_UOvCZ-59" edge="1">
                    <mxGeometry relative="1" as="geometry">
                        <mxPoint x="515" y="505" as="sourcePoint"/>
                    </mxGeometry>
                </mxCell>
                <mxCell id="IAYT3cvLgpT3Wg_UOvCZ-81" value="รหัสการขาย" style="ellipse;whiteSpace=wrap;html=1;align=center;fontSize=16;" parent="1" vertex="1">
                    <mxGeometry x="920" y="715" width="100" height="40" as="geometry"/>
                </mxCell>
                <mxCell id="IAYT3cvLgpT3Wg_UOvCZ-82" value="รหัสการชำระ" style="ellipse;whiteSpace=wrap;html=1;align=center;fontStyle=4;fontSize=16;" parent="1" vertex="1">
                    <mxGeometry x="940" y="670" width="100" height="40" as="geometry"/>
                </mxCell>
                <mxCell id="IAYT3cvLgpT3Wg_UOvCZ-83" value="วันเวลาที่ชำระ" style="ellipse;whiteSpace=wrap;html=1;align=center;fontSize=16;" parent="1" vertex="1">
                    <mxGeometry x="700" y="689" width="100" height="40" as="geometry"/>
                </mxCell>
                <mxCell id="IAYT3cvLgpT3Wg_UOvCZ-85" value="ชื่อธนาคาร" style="ellipse;whiteSpace=wrap;html=1;align=center;fontSize=16;" parent="1" vertex="1">
                    <mxGeometry x="750" y="731.5" width="100" height="40" as="geometry"/>
                </mxCell>
                <mxCell id="IAYT3cvLgpT3Wg_UOvCZ-86" value="ยอดชำระ" style="ellipse;whiteSpace=wrap;html=1;align=center;fontSize=16;" parent="1" vertex="1">
                    <mxGeometry x="840" y="755" width="100" height="40" as="geometry"/>
                </mxCell>
                <mxCell id="IAYT3cvLgpT3Wg_UOvCZ-87" value="รหัสการขาย" style="ellipse;whiteSpace=wrap;html=1;align=center;fontSize=16;" parent="1" vertex="1">
                    <mxGeometry x="460" y="598" width="100" height="40" as="geometry"/>
                </mxCell>
                <mxCell id="IAYT3cvLgpT3Wg_UOvCZ-91" value="" style="endArrow=none;html=1;rounded=0;fontSize=12;startSize=8;endSize=8;curved=1;entryX=0.5;entryY=0;entryDx=0;entryDy=0;exitX=0.5;exitY=1;exitDx=0;exitDy=0;" parent="1" source="IAYT3cvLgpT3Wg_UOvCZ-13" target="IAYT3cvLgpT3Wg_UOvCZ-12" edge="1">
                    <mxGeometry relative="1" as="geometry">
                        <mxPoint x="490" y="370" as="sourcePoint"/>
                        <mxPoint x="650" y="370" as="targetPoint"/>
                    </mxGeometry>
                </mxCell>
                <mxCell id="IAYT3cvLgpT3Wg_UOvCZ-92" value="1" style="resizable=0;html=1;whiteSpace=wrap;align=right;verticalAlign=bottom;fontSize=16;" parent="IAYT3cvLgpT3Wg_UOvCZ-91" connectable="0" vertex="1">
                    <mxGeometry x="1" relative="1" as="geometry">
                        <mxPoint y="-19" as="offset"/>
                    </mxGeometry>
                </mxCell>
                <mxCell id="IAYT3cvLgpT3Wg_UOvCZ-93" value="" style="shape=link;html=1;rounded=0;fontSize=12;startSize=8;endSize=8;curved=1;exitX=0.41;exitY=0.975;exitDx=0;exitDy=0;entryX=0.5;entryY=0;entryDx=0;entryDy=0;exitPerimeter=0;" parent="1" source="IAYT3cvLgpT3Wg_UOvCZ-2" target="IAYT3cvLgpT3Wg_UOvCZ-13" edge="1">
                    <mxGeometry relative="1" as="geometry">
                        <mxPoint x="490" y="370" as="sourcePoint"/>
                        <mxPoint x="650" y="370" as="targetPoint"/>
                    </mxGeometry>
                </mxCell>
                <mxCell id="IAYT3cvLgpT3Wg_UOvCZ-94" value="M" style="resizable=0;html=1;whiteSpace=wrap;align=right;verticalAlign=bottom;fontSize=16;" parent="IAYT3cvLgpT3Wg_UOvCZ-93" connectable="0" vertex="1">
                    <mxGeometry x="1" relative="1" as="geometry">
                        <mxPoint y="-6" as="offset"/>
                    </mxGeometry>
                </mxCell>
                <mxCell id="IAYT3cvLgpT3Wg_UOvCZ-100" style="edgeStyle=none;curved=1;rounded=0;orthogonalLoop=1;jettySize=auto;html=1;exitX=0.5;exitY=1;exitDx=0;exitDy=0;fontSize=12;startSize=8;endSize=8;" parent="1" edge="1">
                    <mxGeometry relative="1" as="geometry">
                        <mxPoint x="1090" y="350" as="sourcePoint"/>
                        <mxPoint x="1090" y="350" as="targetPoint"/>
                    </mxGeometry>
                </mxCell>
                <mxCell id="IAYT3cvLgpT3Wg_UOvCZ-108" value="มี" style="shape=rhombus;perimeter=rhombusPerimeter;whiteSpace=wrap;html=1;align=center;fontSize=16;" parent="1" vertex="1">
                    <mxGeometry x="515" y="240" width="120" height="60" as="geometry"/>
                </mxCell>
                <mxCell id="IAYT3cvLgpT3Wg_UOvCZ-109" value="มี" style="shape=rhombus;perimeter=rhombusPerimeter;whiteSpace=wrap;html=1;align=center;fontSize=16;" parent="1" vertex="1">
                    <mxGeometry x="290" y="420" width="120" height="60" as="geometry"/>
                </mxCell>
                <mxCell id="IAYT3cvLgpT3Wg_UOvCZ-115" value="" style="shape=link;html=1;rounded=0;fontSize=12;startSize=8;endSize=8;curved=1;exitX=1;exitY=0.5;exitDx=0;exitDy=0;entryX=0;entryY=0;entryDx=0;entryDy=0;" parent="1" source="IAYT3cvLgpT3Wg_UOvCZ-108" target="IAYT3cvLgpT3Wg_UOvCZ-67" edge="1">
                    <mxGeometry relative="1" as="geometry">
                        <mxPoint x="490" y="370" as="sourcePoint"/>
                        <mxPoint x="650" y="370" as="targetPoint"/>
                    </mxGeometry>
                </mxCell>
                <mxCell id="IAYT3cvLgpT3Wg_UOvCZ-116" value="M" style="resizable=0;html=1;whiteSpace=wrap;align=right;verticalAlign=bottom;fontSize=16;" parent="IAYT3cvLgpT3Wg_UOvCZ-115" connectable="0" vertex="1">
                    <mxGeometry x="1" relative="1" as="geometry">
                        <mxPoint x="-150" y="-40" as="offset"/>
                    </mxGeometry>
                </mxCell>
                <mxCell id="IAYT3cvLgpT3Wg_UOvCZ-123" style="edgeStyle=none;curved=1;rounded=0;orthogonalLoop=1;jettySize=auto;html=1;exitX=0.5;exitY=1;exitDx=0;exitDy=0;entryX=0.5;entryY=0;entryDx=0;entryDy=0;fontSize=12;startSize=8;endSize=8;endArrow=none;endFill=0;" parent="1" source="IAYT3cvLgpT3Wg_UOvCZ-49" target="IAYT3cvLgpT3Wg_UOvCZ-85" edge="1">
                    <mxGeometry relative="1" as="geometry"/>
                </mxCell>
                <mxCell id="IAYT3cvLgpT3Wg_UOvCZ-125" style="edgeStyle=none;curved=1;rounded=0;orthogonalLoop=1;jettySize=auto;html=1;exitX=0.5;exitY=1;exitDx=0;exitDy=0;entryX=0.5;entryY=0;entryDx=0;entryDy=0;fontSize=12;startSize=8;endSize=8;endArrow=none;endFill=0;" parent="1" source="IAYT3cvLgpT3Wg_UOvCZ-49" target="IAYT3cvLgpT3Wg_UOvCZ-83" edge="1">
                    <mxGeometry relative="1" as="geometry">
                        <mxPoint x="881.5" y="688.5999999999999" as="targetPoint"/>
                    </mxGeometry>
                </mxCell>
                <mxCell id="IAYT3cvLgpT3Wg_UOvCZ-130" value="" style="endArrow=none;html=1;rounded=0;fontSize=12;startSize=8;endSize=8;curved=1;exitX=1;exitY=0.25;exitDx=0;exitDy=0;entryX=0;entryY=0.5;entryDx=0;entryDy=0;" parent="1" source="IAYT3cvLgpT3Wg_UOvCZ-2" target="IAYT3cvLgpT3Wg_UOvCZ-109" edge="1">
                    <mxGeometry relative="1" as="geometry">
                        <mxPoint x="430" y="400" as="sourcePoint"/>
                        <mxPoint x="590" y="400" as="targetPoint"/>
                    </mxGeometry>
                </mxCell>
                <mxCell id="IAYT3cvLgpT3Wg_UOvCZ-131" value="1" style="resizable=0;html=1;whiteSpace=wrap;align=right;verticalAlign=bottom;fontSize=16;" parent="IAYT3cvLgpT3Wg_UOvCZ-130" connectable="0" vertex="1">
                    <mxGeometry x="1" relative="1" as="geometry"/>
                </mxCell>
                <mxCell id="IAYT3cvLgpT3Wg_UOvCZ-132" value="มี" style="shape=rhombus;perimeter=rhombusPerimeter;whiteSpace=wrap;html=1;align=center;fontSize=16;" parent="1" vertex="1">
                    <mxGeometry x="590" y="360" width="120" height="60" as="geometry"/>
                </mxCell>
                <mxCell id="IAYT3cvLgpT3Wg_UOvCZ-133" value="" style="shape=link;html=1;rounded=0;fontSize=12;startSize=8;endSize=8;curved=1;entryX=0;entryY=0.5;entryDx=0;entryDy=0;exitX=0.5;exitY=0;exitDx=0;exitDy=0;" parent="1" source="23" target="IAYT3cvLgpT3Wg_UOvCZ-132" edge="1">
                    <mxGeometry relative="1" as="geometry">
                        <mxPoint x="552.5" y="465" as="sourcePoint"/>
                        <mxPoint x="590" y="400" as="targetPoint"/>
                    </mxGeometry>
                </mxCell>
                <mxCell id="IAYT3cvLgpT3Wg_UOvCZ-134" value="M" style="resizable=0;html=1;whiteSpace=wrap;align=right;verticalAlign=bottom;fontSize=16;" parent="IAYT3cvLgpT3Wg_UOvCZ-133" connectable="0" vertex="1">
                    <mxGeometry x="1" relative="1" as="geometry">
                        <mxPoint x="-5" y="5" as="offset"/>
                    </mxGeometry>
                </mxCell>
                <mxCell id="IAYT3cvLgpT3Wg_UOvCZ-135" value="" style="endArrow=none;html=1;rounded=0;fontSize=12;startSize=8;endSize=8;curved=1;exitX=1;exitY=0.5;exitDx=0;exitDy=0;entryX=0;entryY=0.5;entryDx=0;entryDy=0;" parent="1" source="IAYT3cvLgpT3Wg_UOvCZ-132" target="IAYT3cvLgpT3Wg_UOvCZ-67" edge="1">
                    <mxGeometry relative="1" as="geometry">
                        <mxPoint x="780" y="440" as="sourcePoint"/>
                        <mxPoint x="660" y="450" as="targetPoint"/>
                    </mxGeometry>
                </mxCell>
                <mxCell id="IAYT3cvLgpT3Wg_UOvCZ-136" value="1" style="resizable=0;html=1;whiteSpace=wrap;align=right;verticalAlign=bottom;fontSize=16;" parent="IAYT3cvLgpT3Wg_UOvCZ-135" connectable="0" vertex="1">
                    <mxGeometry x="1" relative="1" as="geometry">
                        <mxPoint x="-70" y="12" as="offset"/>
                    </mxGeometry>
                </mxCell>
                <mxCell id="IAYT3cvLgpT3Wg_UOvCZ-137" value="มี" style="shape=rhombus;perimeter=rhombusPerimeter;whiteSpace=wrap;html=1;align=center;fontSize=16;" parent="1" vertex="1">
                    <mxGeometry x="760" y="470" width="120" height="60" as="geometry"/>
                </mxCell>
                <mxCell id="IAYT3cvLgpT3Wg_UOvCZ-138" value="" style="endArrow=none;html=1;rounded=0;fontSize=12;startSize=8;endSize=8;curved=1;entryX=0.5;entryY=1;entryDx=0;entryDy=0;exitX=0.453;exitY=-0.037;exitDx=0;exitDy=0;exitPerimeter=0;" parent="1" source="IAYT3cvLgpT3Wg_UOvCZ-49" target="IAYT3cvLgpT3Wg_UOvCZ-137" edge="1">
                    <mxGeometry relative="1" as="geometry">
                        <mxPoint x="460" y="459" as="sourcePoint"/>
                        <mxPoint x="860" y="539" as="targetPoint"/>
                    </mxGeometry>
                </mxCell>
                <mxCell id="IAYT3cvLgpT3Wg_UOvCZ-139" value="1" style="resizable=0;html=1;whiteSpace=wrap;align=right;verticalAlign=bottom;fontSize=16;" parent="IAYT3cvLgpT3Wg_UOvCZ-138" connectable="0" vertex="1">
                    <mxGeometry x="1" relative="1" as="geometry">
                        <mxPoint x="40" y="10" as="offset"/>
                    </mxGeometry>
                </mxCell>
                <mxCell id="IAYT3cvLgpT3Wg_UOvCZ-140" value="" style="endArrow=none;html=1;rounded=0;fontSize=12;startSize=8;endSize=8;curved=1;entryX=0.5;entryY=0;entryDx=0;entryDy=0;exitX=0.5;exitY=1;exitDx=0;exitDy=0;" parent="1" source="IAYT3cvLgpT3Wg_UOvCZ-67" target="IAYT3cvLgpT3Wg_UOvCZ-137" edge="1">
                    <mxGeometry relative="1" as="geometry">
                        <mxPoint x="430" y="400" as="sourcePoint"/>
                        <mxPoint x="590" y="400" as="targetPoint"/>
                    </mxGeometry>
                </mxCell>
                <mxCell id="IAYT3cvLgpT3Wg_UOvCZ-141" value="1" style="resizable=0;html=1;whiteSpace=wrap;align=right;verticalAlign=bottom;fontSize=16;" parent="IAYT3cvLgpT3Wg_UOvCZ-140" connectable="0" vertex="1">
                    <mxGeometry x="1" relative="1" as="geometry">
                        <mxPoint y="-9" as="offset"/>
                    </mxGeometry>
                </mxCell>
                <mxCell id="IAYT3cvLgpT3Wg_UOvCZ-142" value="&lt;font size=&quot;1&quot; style=&quot;&quot;&gt;&lt;b style=&quot;font-size: 22px;&quot;&gt;ระบบเลือกซื้อรองเท้า&lt;/b&gt;&lt;/font&gt;" style="text;strokeColor=none;align=center;fillColor=none;html=1;verticalAlign=middle;whiteSpace=wrap;rounded=0;fontSize=16;rotation=1;" parent="1" vertex="1">
                    <mxGeometry x="30" y="50" width="220" height="60" as="geometry"/>
                </mxCell>
                <mxCell id="IAYT3cvLgpT3Wg_UOvCZ-144" style="edgeStyle=none;curved=1;rounded=0;orthogonalLoop=1;jettySize=auto;html=1;exitX=0.5;exitY=0;exitDx=0;exitDy=0;entryX=0;entryY=0.5;entryDx=0;entryDy=0;fontSize=12;startSize=8;endSize=8;endArrow=none;endFill=0;" parent="1" source="IAYT3cvLgpT3Wg_UOvCZ-36" target="IAYT3cvLgpT3Wg_UOvCZ-44" edge="1">
                    <mxGeometry relative="1" as="geometry"/>
                </mxCell>
                <mxCell id="IAYT3cvLgpT3Wg_UOvCZ-151" value="รหัสลูกค้า&lt;br&gt;" style="ellipse;whiteSpace=wrap;html=1;align=center;fontStyle=4;fontSize=16;" parent="1" vertex="1">
                    <mxGeometry x="605" y="60" width="100" height="40" as="geometry"/>
                </mxCell>
                <mxCell id="IAYT3cvLgpT3Wg_UOvCZ-158" value="" style="endArrow=none;html=1;rounded=0;fontSize=12;startSize=8;endSize=8;curved=1;exitX=0.75;exitY=1;exitDx=0;exitDy=0;" parent="1" source="IAYT3cvLgpT3Wg_UOvCZ-36" edge="1">
                    <mxGeometry relative="1" as="geometry">
                        <mxPoint x="460" y="400" as="sourcePoint"/>
                        <mxPoint x="520" y="270" as="targetPoint"/>
                    </mxGeometry>
                </mxCell>
                <mxCell id="IAYT3cvLgpT3Wg_UOvCZ-159" value="1" style="resizable=0;html=1;whiteSpace=wrap;align=right;verticalAlign=bottom;fontSize=16;" parent="IAYT3cvLgpT3Wg_UOvCZ-158" connectable="0" vertex="1">
                    <mxGeometry x="1" relative="1" as="geometry">
                        <mxPoint x="10" y="-10" as="offset"/>
                    </mxGeometry>
                </mxCell>
                <mxCell id="P9IQTpDalQtBTSlJP2IU-2" value="" style="shape=link;html=1;rounded=0;exitX=1;exitY=0.5;exitDx=0;exitDy=0;entryX=0;entryY=0;entryDx=0;entryDy=0;width=-6;" parent="1" source="IAYT3cvLgpT3Wg_UOvCZ-109" target="23" edge="1">
                    <mxGeometry relative="1" as="geometry">
                        <mxPoint x="520" y="440" as="sourcePoint"/>
                        <mxPoint x="440" y="465" as="targetPoint"/>
                    </mxGeometry>
                </mxCell>
                <mxCell id="P9IQTpDalQtBTSlJP2IU-4" style="edgeStyle=none;curved=1;rounded=0;orthogonalLoop=1;jettySize=auto;html=1;fontSize=12;startSize=8;endSize=8;endArrow=none;endFill=0;" parent="1" edge="1">
                    <mxGeometry relative="1" as="geometry">
                        <mxPoint x="350" y="690" as="sourcePoint"/>
                        <mxPoint x="409.65410744009796" y="726.5068480070163" as="targetPoint"/>
                    </mxGeometry>
                </mxCell>
                <mxCell id="P9IQTpDalQtBTSlJP2IU-5" value="ประเภทสินค้า" style="whiteSpace=wrap;html=1;align=center;fontSize=16;" parent="1" vertex="1">
                    <mxGeometry x="300" y="649" width="100" height="40" as="geometry"/>
                </mxCell>
                <mxCell id="P9IQTpDalQtBTSlJP2IU-6" value="มี" style="shape=rhombus;perimeter=rhombusPerimeter;whiteSpace=wrap;html=1;align=center;fontSize=16;" parent="1" vertex="1">
                    <mxGeometry x="220" y="578" width="120" height="60" as="geometry"/>
                </mxCell>
                <mxCell id="P9IQTpDalQtBTSlJP2IU-8" value="" style="endArrow=none;html=1;rounded=0;fontSize=12;startSize=8;endSize=8;curved=1;entryX=0.5;entryY=1;entryDx=0;entryDy=0;exitX=0.5;exitY=0;exitDx=0;exitDy=0;" parent="1" source="P9IQTpDalQtBTSlJP2IU-15" target="P9IQTpDalQtBTSlJP2IU-5" edge="1">
                    <mxGeometry relative="1" as="geometry">
                        <mxPoint x="270" y="720" as="sourcePoint"/>
                        <mxPoint x="325" y="583" as="targetPoint"/>
                    </mxGeometry>
                </mxCell>
                <mxCell id="P9IQTpDalQtBTSlJP2IU-10" value="" style="endArrow=none;html=1;rounded=0;fontSize=12;startSize=8;endSize=8;curved=1;entryX=0.5;entryY=0;entryDx=0;entryDy=0;exitX=1;exitY=0.5;exitDx=0;exitDy=0;" parent="1" source="P9IQTpDalQtBTSlJP2IU-6" target="P9IQTpDalQtBTSlJP2IU-5" edge="1">
                    <mxGeometry relative="1" as="geometry">
                        <mxPoint x="635" y="403" as="sourcePoint"/>
                        <mxPoint x="795" y="403" as="targetPoint"/>
                    </mxGeometry>
                </mxCell>
                <mxCell id="P9IQTpDalQtBTSlJP2IU-11" value="1" style="resizable=0;html=1;whiteSpace=wrap;align=right;verticalAlign=bottom;fontSize=16;" parent="P9IQTpDalQtBTSlJP2IU-10" connectable="0" vertex="1">
                    <mxGeometry x="1" relative="1" as="geometry">
                        <mxPoint x="10" y="-25" as="offset"/>
                    </mxGeometry>
                </mxCell>
                <mxCell id="P9IQTpDalQtBTSlJP2IU-13" value="" style="shape=link;html=1;rounded=0;exitX=0.5;exitY=1;exitDx=0;exitDy=0;entryX=0;entryY=0.5;entryDx=0;entryDy=0;" parent="1" source="IAYT3cvLgpT3Wg_UOvCZ-2" target="P9IQTpDalQtBTSlJP2IU-6" edge="1">
                    <mxGeometry relative="1" as="geometry">
                        <mxPoint x="520" y="540" as="sourcePoint"/>
                        <mxPoint x="680" y="540" as="targetPoint"/>
                    </mxGeometry>
                </mxCell>
                <mxCell id="P9IQTpDalQtBTSlJP2IU-15" value="รหัสประเภทสินค้า" style="ellipse;whiteSpace=wrap;html=1;align=center;fontStyle=4;fontSize=16;" parent="1" vertex="1">
                    <mxGeometry x="247.5" y="723" width="125" height="57" as="geometry"/>
                </mxCell>
                <mxCell id="P9IQTpDalQtBTSlJP2IU-19" value="&lt;font style=&quot;font-size: 16px;&quot;&gt;สินค้าคงเหลือ&lt;/font&gt;" style="ellipse;whiteSpace=wrap;html=1;align=center;" parent="1" vertex="1">
                    <mxGeometry x="20" y="330" width="100" height="40" as="geometry"/>
                </mxCell>
                <mxCell id="P9IQTpDalQtBTSlJP2IU-20" value="&lt;font style=&quot;font-size: 16px;&quot;&gt;ราคาต่อหน่วย&lt;/font&gt;" style="ellipse;whiteSpace=wrap;html=1;align=center;" parent="1" vertex="1">
                    <mxGeometry x="360" y="560" width="110" height="40" as="geometry"/>
                </mxCell>
                <mxCell id="P9IQTpDalQtBTSlJP2IU-21" value="&lt;font style=&quot;font-size: 16px;&quot;&gt;พนักงาน&lt;/font&gt;" style="whiteSpace=wrap;html=1;align=center;" parent="1" vertex="1">
                    <mxGeometry x="870" y="150" width="150" height="45" as="geometry"/>
                </mxCell>
                <mxCell id="P9IQTpDalQtBTSlJP2IU-22" value="มี" style="shape=rhombus;perimeter=rhombusPerimeter;whiteSpace=wrap;html=1;align=center;fontSize=16;" parent="1" vertex="1">
                    <mxGeometry x="830" y="230" width="120" height="60" as="geometry"/>
                </mxCell>
                <mxCell id="P9IQTpDalQtBTSlJP2IU-23" value="" style="endArrow=none;html=1;rounded=0;entryX=0.25;entryY=1;entryDx=0;entryDy=0;exitX=0.5;exitY=0;exitDx=0;exitDy=0;" parent="1" source="P9IQTpDalQtBTSlJP2IU-22" target="P9IQTpDalQtBTSlJP2IU-21" edge="1">
                    <mxGeometry relative="1" as="geometry">
                        <mxPoint x="500" y="260" as="sourcePoint"/>
                        <mxPoint x="660" y="260" as="targetPoint"/>
                    </mxGeometry>
                </mxCell>
                <mxCell id="P9IQTpDalQtBTSlJP2IU-24" value="1" style="resizable=0;html=1;whiteSpace=wrap;align=right;verticalAlign=bottom;" parent="P9IQTpDalQtBTSlJP2IU-23" connectable="0" vertex="1">
                    <mxGeometry x="1" relative="1" as="geometry">
                        <mxPoint x="3" y="45" as="offset"/>
                    </mxGeometry>
                </mxCell>
                <mxCell id="P9IQTpDalQtBTSlJP2IU-25" value="" style="shape=link;html=1;rounded=0;entryX=0.5;entryY=1;entryDx=0;entryDy=0;exitX=0.5;exitY=0;exitDx=0;exitDy=0;width=4;" parent="1" source="IAYT3cvLgpT3Wg_UOvCZ-67" target="P9IQTpDalQtBTSlJP2IU-22" edge="1">
                    <mxGeometry relative="1" as="geometry">
                        <mxPoint x="500" y="360" as="sourcePoint"/>
                        <mxPoint x="660" y="360" as="targetPoint"/>
                    </mxGeometry>
                </mxCell>
                <mxCell id="P9IQTpDalQtBTSlJP2IU-27" value="ชื่อจริง" style="ellipse;whiteSpace=wrap;html=1;align=center;fontSize=16;" parent="1" vertex="1">
                    <mxGeometry x="760" y="40" width="100" height="40" as="geometry"/>
                </mxCell>
                <mxCell id="P9IQTpDalQtBTSlJP2IU-28" value="นามสกุล" style="ellipse;whiteSpace=wrap;html=1;align=center;fontSize=16;" parent="1" vertex="1">
                    <mxGeometry x="870" y="30" width="100" height="40" as="geometry"/>
                </mxCell>
                <mxCell id="P9IQTpDalQtBTSlJP2IU-31" value="เบอร์โทรศัพท์" style="ellipse;whiteSpace=wrap;html=1;align=center;fontSize=16;" parent="1" vertex="1">
                    <mxGeometry x="980" y="40" width="100" height="40" as="geometry"/>
                </mxCell>
                <mxCell id="P9IQTpDalQtBTSlJP2IU-32" value="&lt;font style=&quot;font-size: 16px;&quot;&gt;รหัสพนักงาน&lt;/font&gt;" style="ellipse;whiteSpace=wrap;html=1;align=center;fontStyle=4;" parent="1" vertex="1">
                    <mxGeometry x="740" y="100" width="100" height="40" as="geometry"/>
                </mxCell>
                <mxCell id="P9IQTpDalQtBTSlJP2IU-35" value="&lt;font style=&quot;font-size: 16px;&quot;&gt;วันเดือนปีเกิด&lt;/font&gt;" style="ellipse;whiteSpace=wrap;html=1;align=center;" parent="1" vertex="1">
                    <mxGeometry x="235" y="180" width="100" height="40" as="geometry"/>
                </mxCell>
                <mxCell id="P9IQTpDalQtBTSlJP2IU-37" value="" style="endArrow=none;html=1;rounded=0;exitX=1;exitY=0;exitDx=0;exitDy=0;entryX=0.5;entryY=0;entryDx=0;entryDy=0;" parent="1" source="P9IQTpDalQtBTSlJP2IU-35" target="IAYT3cvLgpT3Wg_UOvCZ-36" edge="1">
                    <mxGeometry relative="1" as="geometry">
                        <mxPoint x="500" y="260" as="sourcePoint"/>
                        <mxPoint x="660" y="260" as="targetPoint"/>
                    </mxGeometry>
                </mxCell>
                <mxCell id="P9IQTpDalQtBTSlJP2IU-38" value="" style="endArrow=none;html=1;rounded=0;entryX=0.25;entryY=0;entryDx=0;entryDy=0;exitX=1;exitY=1;exitDx=0;exitDy=0;" parent="1" source="P9IQTpDalQtBTSlJP2IU-32" target="P9IQTpDalQtBTSlJP2IU-21" edge="1">
                    <mxGeometry relative="1" as="geometry">
                        <mxPoint x="500" y="260" as="sourcePoint"/>
                        <mxPoint x="660" y="260" as="targetPoint"/>
                    </mxGeometry>
                </mxCell>
                <mxCell id="P9IQTpDalQtBTSlJP2IU-39" value="" style="endArrow=none;html=1;rounded=0;entryX=0.25;entryY=0;entryDx=0;entryDy=0;exitX=1;exitY=1;exitDx=0;exitDy=0;" parent="1" source="P9IQTpDalQtBTSlJP2IU-27" target="P9IQTpDalQtBTSlJP2IU-21" edge="1">
                    <mxGeometry relative="1" as="geometry">
                        <mxPoint x="500" y="360" as="sourcePoint"/>
                        <mxPoint x="660" y="360" as="targetPoint"/>
                    </mxGeometry>
                </mxCell>
                <mxCell id="P9IQTpDalQtBTSlJP2IU-40" value="" style="endArrow=none;html=1;rounded=0;entryX=0.25;entryY=0;entryDx=0;entryDy=0;exitX=0.5;exitY=1;exitDx=0;exitDy=0;" parent="1" source="P9IQTpDalQtBTSlJP2IU-28" target="P9IQTpDalQtBTSlJP2IU-21" edge="1">
                    <mxGeometry relative="1" as="geometry">
                        <mxPoint x="930" y="90" as="sourcePoint"/>
                        <mxPoint x="660" y="360" as="targetPoint"/>
                    </mxGeometry>
                </mxCell>
                <mxCell id="P9IQTpDalQtBTSlJP2IU-41" value="" style="endArrow=none;html=1;rounded=0;entryX=0;entryY=1;entryDx=0;entryDy=0;exitX=0.25;exitY=0;exitDx=0;exitDy=0;" parent="1" source="P9IQTpDalQtBTSlJP2IU-21" target="P9IQTpDalQtBTSlJP2IU-31" edge="1">
                    <mxGeometry relative="1" as="geometry">
                        <mxPoint x="500" y="360" as="sourcePoint"/>
                        <mxPoint x="660" y="360" as="targetPoint"/>
                    </mxGeometry>
                </mxCell>
                <mxCell id="P9IQTpDalQtBTSlJP2IU-42" value="&lt;font style=&quot;font-size: 16px;&quot;&gt;รหัสพนักงาน&lt;/font&gt;" style="ellipse;whiteSpace=wrap;html=1;align=center;" parent="1" vertex="1">
                    <mxGeometry x="990" y="240" width="100" height="40" as="geometry"/>
                </mxCell>
                <mxCell id="P9IQTpDalQtBTSlJP2IU-43" value="" style="endArrow=none;html=1;rounded=0;entryX=0;entryY=1;entryDx=0;entryDy=0;exitX=1;exitY=0.25;exitDx=0;exitDy=0;" parent="1" source="IAYT3cvLgpT3Wg_UOvCZ-67" target="P9IQTpDalQtBTSlJP2IU-42" edge="1">
                    <mxGeometry relative="1" as="geometry">
                        <mxPoint x="500" y="360" as="sourcePoint"/>
                        <mxPoint x="660" y="360" as="targetPoint"/>
                    </mxGeometry>
                </mxCell>
                <mxCell id="4" value="รหัสประเภทสินค้า" style="ellipse;whiteSpace=wrap;html=1;align=center;fontSize=16;" parent="1" vertex="1">
                    <mxGeometry x="20" y="373" width="120" height="41" as="geometry"/>
                </mxCell>
                <mxCell id="6" value="" style="endArrow=none;html=1;rounded=0;entryX=1;entryY=0.5;entryDx=0;entryDy=0;exitX=0.5;exitY=0;exitDx=0;exitDy=0;" parent="1" source="IAYT3cvLgpT3Wg_UOvCZ-2" target="4" edge="1">
                    <mxGeometry relative="1" as="geometry">
                        <mxPoint x="280" y="450" as="sourcePoint"/>
                        <mxPoint x="440" y="450" as="targetPoint"/>
                    </mxGeometry>
                </mxCell>
                <mxCell id="9" value="" style="endArrow=none;html=1;rounded=0;exitX=1;exitY=0.5;exitDx=0;exitDy=0;entryX=0.5;entryY=0;entryDx=0;entryDy=0;" parent="1" source="IAYT3cvLgpT3Wg_UOvCZ-29" target="IAYT3cvLgpT3Wg_UOvCZ-36" edge="1">
                    <mxGeometry relative="1" as="geometry">
                        <mxPoint x="610" y="250" as="sourcePoint"/>
                        <mxPoint x="770" y="250" as="targetPoint"/>
                    </mxGeometry>
                </mxCell>
                <mxCell id="10" value="&lt;font style=&quot;font-size: 16px;&quot;&gt;รหัสลูกค้า&lt;/font&gt;" style="ellipse;whiteSpace=wrap;html=1;align=center;" parent="1" vertex="1">
                    <mxGeometry x="1010" y="425" width="100" height="40" as="geometry"/>
                </mxCell>
                <mxCell id="11" value="" style="endArrow=none;html=1;rounded=0;entryX=0;entryY=0;entryDx=0;entryDy=0;exitX=1;exitY=0.25;exitDx=0;exitDy=0;" parent="1" source="IAYT3cvLgpT3Wg_UOvCZ-67" target="10" edge="1">
                    <mxGeometry relative="1" as="geometry">
                        <mxPoint x="960" y="390" as="sourcePoint"/>
                        <mxPoint x="1014.6446609406728" y="284.14213562373106" as="targetPoint"/>
                    </mxGeometry>
                </mxCell>
                <mxCell id="18" value="M" style="resizable=0;html=1;whiteSpace=wrap;align=right;verticalAlign=bottom;fontSize=16;" parent="1" connectable="0" vertex="1">
                    <mxGeometry x="429.99594202199654" y="449.99811595600715" as="geometry"/>
                </mxCell>
                <mxCell id="20" value="M" style="resizable=0;html=1;whiteSpace=wrap;align=right;verticalAlign=bottom;fontSize=16;" parent="1" connectable="0" vertex="1">
                    <mxGeometry x="250.00251351011775" y="589.9965888076974" as="geometry"/>
                </mxCell>
                <mxCell id="21" value="M" style="resizable=0;html=1;whiteSpace=wrap;align=right;verticalAlign=bottom;fontSize=16;" parent="1" connectable="0" vertex="1">
                    <mxGeometry x="749.9959420219966" y="359.99811595600715" as="geometry">
                        <mxPoint x="161" y="-41" as="offset"/>
                    </mxGeometry>
                </mxCell>
                <mxCell id="23" value="&lt;span style=&quot;font-size: 16px;&quot;&gt;รายละเอียดการขาย&lt;/span&gt;" style="shape=ext;margin=3;double=1;whiteSpace=wrap;html=1;align=center;fontSize=22;" parent="1" vertex="1">
                    <mxGeometry x="445" y="460" width="155" height="45" as="geometry"/>
                </mxCell>
                <mxCell id="27" value="รหัสรายละเอียดการขาย" style="ellipse;whiteSpace=wrap;html=1;align=center;fontStyle=4;fontSize=16;" parent="1" vertex="1">
                    <mxGeometry x="260" y="505" width="190" height="40" as="geometry"/>
                </mxCell>
                <mxCell id="30" style="edgeStyle=none;html=1;exitX=0;exitY=0.5;exitDx=0;exitDy=0;entryX=0.25;entryY=0;entryDx=0;entryDy=0;endArrow=none;endFill=0;" parent="1" source="28" target="P9IQTpDalQtBTSlJP2IU-21" edge="1">
                    <mxGeometry relative="1" as="geometry"/>
                </mxCell>
                <mxCell id="28" value="password" style="ellipse;whiteSpace=wrap;html=1;align=center;fontSize=16;" parent="1" vertex="1">
                    <mxGeometry x="1030" y="115" width="100" height="40" as="geometry"/>
                </mxCell>
                <mxCell id="31" style="edgeStyle=none;html=1;exitX=0;exitY=0.5;exitDx=0;exitDy=0;entryX=0.25;entryY=0;entryDx=0;entryDy=0;endArrow=none;endFill=0;" parent="1" source="29" target="P9IQTpDalQtBTSlJP2IU-21" edge="1">
                    <mxGeometry relative="1" as="geometry"/>
                </mxCell>
                <mxCell id="29" value="username" style="ellipse;whiteSpace=wrap;html=1;align=center;fontSize=16;" parent="1" vertex="1">
                    <mxGeometry x="1060" y="70" width="100" height="40" as="geometry"/>
                </mxCell>
                <mxCell id="32" value="ชื่อประเภทสินค้า" style="ellipse;whiteSpace=wrap;html=1;align=center;fontSize=16;" parent="1" vertex="1">
                    <mxGeometry x="385" y="723" width="125" height="47" as="geometry"/>
                </mxCell>
                <mxCell id="33" value="" style="edgeStyle=none;curved=1;rounded=0;orthogonalLoop=1;jettySize=auto;html=1;exitX=0.5;exitY=1;exitDx=0;exitDy=0;fontSize=12;startSize=8;endSize=8;endArrow=none;" parent="1" target="IAYT3cvLgpT3Wg_UOvCZ-65" edge="1">
                    <mxGeometry relative="1" as="geometry">
                        <mxPoint x="685" y="540" as="sourcePoint"/>
                        <mxPoint x="685" y="540" as="targetPoint"/>
                    </mxGeometry>
                </mxCell>
                <mxCell id="IAYT3cvLgpT3Wg_UOvCZ-65" value="รหัสสินค้า" style="ellipse;whiteSpace=wrap;html=1;align=center;fontSize=16;" parent="1" vertex="1">
                    <mxGeometry x="635" y="530" width="100" height="40" as="geometry"/>
                </mxCell>
                <mxCell id="34" value="username" style="ellipse;whiteSpace=wrap;html=1;align=center;fontSize=16;" parent="1" vertex="1">
                    <mxGeometry x="960" y="626.5" width="100" height="40" as="geometry"/>
                </mxCell>
                <mxCell id="36" value="หลักฐานการชำระ" style="ellipse;whiteSpace=wrap;html=1;align=center;fontSize=16;" parent="1" vertex="1">
                    <mxGeometry x="610" y="649" width="150" height="38.5" as="geometry"/>
                </mxCell>
            </root>
        </mxGraphModel>
    </diagram>
</mxfile>